<svg id="Group_316" data-name="Group 316" xmlns="http://www.w3.org/2000/svg" xmlns:xlink="http://www.w3.org/1999/xlink" width="232" height="27.869" viewBox="0 0 232 27.869">
  <defs>
    <clipPath id="clip-path">
      <rect id="Rectangle_3" data-name="Rectangle 3" width="232" height="27.869" fill="#112c4d"/>
    </clipPath>
  </defs>
  <g id="Group_1" data-name="Group 1" clip-path="url(#clip-path)">
    <path id="Path_1" data-name="Path 1" d="M28.16,19.453h-.137L20.107,4.368a2.672,2.672,0,0,0,.578-1.651,2.717,2.717,0,0,0-5.434,0,2.672,2.672,0,0,0,.578,1.651l-7.892,15.1H7.664L4.856,14.1a2.672,2.672,0,0,0,.578-1.652A2.717,2.717,0,1,0,2.717,15.16h.137l2.808,5.388A2.671,2.671,0,0,0,5.084,22.2a2.717,2.717,0,0,0,5.434,0,2.671,2.671,0,0,0-.578-1.651l7.892-15.13h.274L26,20.549A2.671,2.671,0,0,0,25.42,22.2a2.717,2.717,0,1,0,2.74-2.747" transform="translate(0 -0.001)" fill="#112c4d"/>
    <path id="Path_2" data-name="Path 2" d="M81.647,100.679a2.715,2.715,0,1,1-2.715,2.715,2.715,2.715,0,0,1,2.715-2.715" transform="translate(-63.672 -81.214)" fill="#112c4d"/>
    <path id="Path_3" data-name="Path 3" d="M29.04,100.679a2.715,2.715,0,1,1-2.715,2.715,2.715,2.715,0,0,1,2.715-2.715" transform="translate(-21.235 -81.214)" fill="#112c4d"/>
    <path id="Path_4" data-name="Path 4" d="M2.715,50.35A2.715,2.715,0,1,1,0,53.065,2.715,2.715,0,0,1,2.715,50.35" transform="translate(0 -40.616)" fill="#112c4d"/>
    <path id="Path_5" data-name="Path 5" d="M81.647,0a2.715,2.715,0,1,1-2.715,2.715A2.715,2.715,0,0,1,81.647,0" transform="translate(-63.672)" fill="#112c4d"/>
    <path id="Path_6" data-name="Path 6" d="M134.254,100.679a2.715,2.715,0,1,1-2.715,2.715,2.715,2.715,0,0,1,2.715-2.715" transform="translate(-106.108 -81.214)" fill="#112c4d"/>
    <path id="Path_7" data-name="Path 7" d="M208.358,52.359h-3.664l-5.305,13.722h3.2l.865-2.367h6.13l.865,2.367h3.2Zm-4.116,8.809,2.282-6.295,2.262,6.295Z" transform="translate(-160.84 -42.236)" fill="#112c4d"/>
    <path id="Path_8" data-name="Path 8" d="M284.647,80.613a4.645,4.645,0,0,1-3.5,1.5,2.844,2.844,0,0,1-3.2-3.127V71.932h2.611v6.03a1.6,1.6,0,0,0,1.83,1.83,2.923,2.923,0,0,0,2.262-1.133V71.932h2.615V81.87h-2.615Z" transform="translate(-224.211 -58.025)" fill="#112c4d"/>
    <path id="Path_9" data-name="Path 9" d="M335.328,68.155V62.973h-1.646V60.687h1.646V57.992h2.635v2.715h2v2.286h-2v4.461c0,.621.328,1.093.9,1.093a1.429,1.429,0,0,0,.905-.288l.553,1.974a3.247,3.247,0,0,1-2.178.637,2.484,2.484,0,0,1-2.819-2.715" transform="translate(-269.17 -46.78)" fill="#112c4d"/>
    <path id="Path_10" data-name="Path 10" d="M377.451,70.668a5.206,5.206,0,1,0,5.266,5.206,5.041,5.041,0,0,0-5.266-5.206m0,8.1a2.914,2.914,0,1,1,2.551-2.9,2.643,2.643,0,0,1-2.551,2.9" transform="translate(-300.245 -57.006)" fill="#112c4d"/>
    <path id="Path_11" data-name="Path 11" d="M448.918,74.626c0-.925-.4-1.6-1.482-1.6a2.639,2.639,0,0,0-2.058,1.153V80.9h-2.631V74.626c0-.925-.4-1.6-1.482-1.6a2.671,2.671,0,0,0-2.058,1.173v6.687H436.6V70.962h2.611v1.309a4.352,4.352,0,0,1,3.251-1.542,2.614,2.614,0,0,1,2.755,1.81,4.221,4.221,0,0,1,3.416-1.81c1.83,0,2.919.965,2.919,3V80.9h-2.631Z" transform="translate(-352.188 -57.056)" fill="#112c4d"/>
    <path id="Path_12" data-name="Path 12" d="M528.8,70.664a6.527,6.527,0,0,0-4.341,1.554l.989,1.75a4.184,4.184,0,0,1,2.891-1.165c1.317,0,2.182.657,2.182,1.666v1.377a4.011,4.011,0,0,0-3.147-1.2c-1.6,0-3.456.845-3.456,3.167a3.309,3.309,0,0,0,3.456,3.291,4.109,4.109,0,0,0,3.155-1.277v1.029h2.615V74.448c0-2.879-2.078-3.784-4.345-3.784m1.73,7.8a2.619,2.619,0,0,1-2.1.861c-1.029,0-1.874-.533-1.874-1.458s.845-1.5,1.874-1.5a2.619,2.619,0,0,1,2.1.861Z" transform="translate(-422.626 -57.001)" fill="#112c4d"/>
    <path id="Path_13" data-name="Path 13" d="M580.842,68.155V62.973H579.2V60.687h1.646V57.992h2.631v2.715h2v2.286h-2v4.461c0,.621.332,1.093.9,1.093a1.421,1.421,0,0,0,.9-.288l.557,1.974a3.247,3.247,0,0,1-2.178.637,2.482,2.482,0,0,1-2.819-2.715" transform="translate(-467.218 -46.78)" fill="#112c4d"/>
    <path id="Path_14" data-name="Path 14" d="M627.828,76.134c0-3.251-2-5.47-4.977-5.47a5.053,5.053,0,0,0-5.143,4.962q0,.122,0,.243a5.007,5.007,0,0,0,5.305,5.206,6.2,6.2,0,0,0,4.1-1.378l-1.153-1.686a4.064,4.064,0,0,1-2.655,1.013,2.677,2.677,0,0,1-2.859-2.3h7.384Zm-7.416-1.193a2.4,2.4,0,0,1,2.447-2.2,2.3,2.3,0,0,1,2.443,2.143c0,.02,0,.039,0,.059Z" transform="translate(-498.283 -57.002)" fill="#112c4d"/>
    <path id="Path_15" data-name="Path 15" d="M684.011,52.358v5.061a3.824,3.824,0,0,0-3.067-1.522c-2.527,0-4.4,1.974-4.4,5.226s1.894,5.205,4.4,5.205a3.856,3.856,0,0,0,3.067-1.522v1.277h2.631V52.358Zm0,10.511A2.835,2.835,0,0,1,681.749,64a2.92,2.92,0,0,1,0-5.782,2.835,2.835,0,0,1,2.262,1.133Z" transform="translate(-545.741 -42.235)" fill="#112c4d"/>
    <path id="Path_16" data-name="Path 16" d="M771.159,52.359H767.5l-5.318,13.722h3.2l.865-2.367h6.13l.861,2.367h3.2Zm-4.112,8.809,2.282-6.295,2.262,6.295Z" transform="translate(-614.826 -42.236)" fill="#112c4d"/>
    <path id="Path_17" data-name="Path 17" d="M848.958,74.888a1.611,1.611,0,0,0-1.83-1.85,2.827,2.827,0,0,0-2.262,1.173V80.9h-2.615V70.96h2.615V72.27a4.544,4.544,0,0,1,3.475-1.542,2.889,2.889,0,0,1,3.228,3.167v7h-2.611Z" transform="translate(-679.416 -57.054)" fill="#112c4d"/>
    <path id="Path_18" data-name="Path 18" d="M905.452,70.664a6.526,6.526,0,0,0-4.345,1.554l.989,1.75a4.185,4.185,0,0,1,2.9-1.173c1.318,0,2.182.657,2.182,1.666v1.378a4.01,4.01,0,0,0-3.147-1.2c-1.6,0-3.456.845-3.456,3.167a3.308,3.308,0,0,0,3.456,3.292,4.117,4.117,0,0,0,3.147-1.269v1.029h2.615V74.448c0-2.879-2.078-3.784-4.34-3.784m1.73,7.8a2.619,2.619,0,0,1-2.1.861c-1.029,0-1.874-.533-1.874-1.458s.845-1.5,1.874-1.5a2.619,2.619,0,0,1,2.1.861Z" transform="translate(-726.464 -57.001)" fill="#112c4d"/>
    <rect id="Rectangle_1" data-name="Rectangle 1" width="2.611" height="13.722" transform="translate(185.92 10.123)" fill="#112c4d"/>
    <path id="Path_19" data-name="Path 19" d="M983.528,83.575a1.314,1.314,0,0,0,1.377-.721l.372-.841-4.032-10.083h2.8l2.587,6.915,2.591-6.911h2.8l-4.653,11.556a3.6,3.6,0,0,1-3.768,2.4,7.308,7.308,0,0,1-1.293-.144l.4-2.346a2.237,2.237,0,0,0,.813.172" transform="translate(-791.538 -58.024)" fill="#112c4d"/>
    <path id="Path_20" data-name="Path 20" d="M1039.062,68.155V62.973h-1.646V60.687h1.646V57.992h2.635v2.715h2v2.286h-2v4.461c0,.621.328,1.093.9,1.093a1.421,1.421,0,0,0,.9-.288l.557,1.974a3.252,3.252,0,0,1-2.182.637c-1.85,0-2.819-.945-2.819-2.715" transform="translate(-836.849 -46.78)" fill="#112c4d"/>
    <path id="Path_21" data-name="Path 21" d="M1077.761,49.762a1.566,1.566,0,1,1,1.566,1.566h0a1.574,1.574,0,0,1-1.562-1.566" transform="translate(-869.394 -38.878)" fill="#112c4d"/>
    <rect id="Rectangle_2" data-name="Rectangle 2" width="2.611" height="9.934" transform="translate(208.635 13.907)" fill="#112c4d"/>
    <path id="Path_22" data-name="Path 22" d="M1108.03,70.668a4.619,4.619,0,0,1,3.928,1.79l-1.71,1.6a2.4,2.4,0,0,0-2.1-1.069,2.9,2.9,0,0,0,0,5.782,2.511,2.511,0,0,0,2.1-1.069l1.71,1.6a4.586,4.586,0,0,1-3.928,1.81,5.224,5.224,0,1,1,0-10.447" transform="translate(-889.56 -57.006)" fill="#112c4d"/>
    <path id="Path_23" data-name="Path 23" d="M1155.9,77.72a5.705,5.705,0,0,0,3.436,1.357c1.133,0,1.666-.4,1.666-1.009,0-.7-.861-.945-2-1.173-1.706-.328-3.908-.741-3.908-3.107,0-1.666,1.462-3.123,4.072-3.123a6.34,6.34,0,0,1,4,1.358l-1.033,1.8a4.186,4.186,0,0,0-2.943-1.153c-.945,0-1.562.348-1.562.925s.8.845,1.894,1.069c1.706.328,4,.8,4,3.251,0,1.81-1.542,3.2-4.3,3.2a6.7,6.7,0,0,1-4.445-1.542Z" transform="translate(-931.528 -57.002)" fill="#112c4d"/>
    <path id="Path_24" data-name="Path 24" d="M81.605,100.614a2.717,2.717,0,1,1-2.717,2.717,2.717,2.717,0,0,1,2.717-2.717" transform="translate(-63.636 -81.162)" fill="#112c4d"/>
  </g>
</svg>
