<?xml version="1.0" encoding="UTF-8"?>
<svg id="Layer_2" data-name="Layer 2" xmlns="http://www.w3.org/2000/svg" viewBox="0 0 402.13 110.16">
  <defs>
    <style>
      .cls-1 {
        fill: #47dd85;
      }

      .cls-1, .cls-2, .cls-3, .cls-4, .cls-5 {
        stroke-width: 0px;
      }

      .cls-2 {
        fill: #56148c;
      }

      .cls-3 {
        fill: #3b7dc0;
      }

      .cls-4 {
        fill: #112c4d;
      }

      .cls-5 {
        fill: #ff0195;
      }
    </style>
  </defs>
  <g id="Layer_1-2" data-name="Layer 1">
    <g>
      <g>
        <g>
          <path class="cls-4" d="m168.91,13.94h-9.14l-13.25,34.27h8.01l2.16-5.91h15.31l2.16,5.91h7.96l-13.2-34.27Zm-10.27,22.04l5.7-15.72,5.65,15.72h-11.35Z"/>
          <path class="cls-4" d="m201.18,45.07c-1.7,1.9-4.68,3.75-8.73,3.75-5.45,0-8.01-2.98-8.01-7.81v-17.62h6.52v15.05c0,3.44,1.8,4.57,4.57,4.57,2.52,0,4.52-1.39,5.65-2.83v-16.8h6.52v24.81h-6.52v-3.13Z"/>
          <path class="cls-4" d="m215.47,42.04v-12.95h-4.11v-5.7h4.11v-6.78h6.58v6.78h5.03v5.7h-5.03v11.2c0,1.54.82,2.72,2.26,2.72.98,0,1.9-.36,2.26-.72l1.39,4.93c-.98.87-2.72,1.59-5.45,1.59-4.57,0-7.04-2.36-7.04-6.78Z"/>
          <path class="cls-4" d="m243.06,22.78c-8.17,0-13.1,5.96-13.1,13s4.93,13.05,13.1,13.05,13.15-5.96,13.15-13.05-4.93-13-13.15-13Zm0,20.24c-4.06,0-6.32-3.34-6.32-7.24s2.26-7.19,6.32-7.19,6.37,3.34,6.37,7.19-2.31,7.24-6.37,7.24Z"/>
          <path class="cls-4" d="m291.81,32.54c0-2.31-1.03-3.96-3.7-3.96-2.31,0-4.21,1.54-5.14,2.88v16.75h-6.58v-15.67c0-2.31-1.03-3.96-3.7-3.96-2.26,0-4.16,1.54-5.14,2.93v16.7h-6.52v-24.81h6.52v3.24c1.03-1.49,4.32-3.85,8.12-3.85s5.96,1.7,6.88,4.52c1.44-2.26,4.73-4.52,8.53-4.52,4.57,0,7.29,2.41,7.29,7.5v17.93h-6.58v-15.67Z"/>
          <path class="cls-4" d="m315.4,22.78c-3.9,0-7.81,1.23-10.84,3.9l2.47,4.37c2.11-1.95,4.57-2.93,7.24-2.93,3.29,0,5.45,1.64,5.45,4.16v3.44c-1.64-2-4.57-3.03-7.86-3.03-3.96,0-8.63,2.11-8.63,7.91s4.68,8.22,8.63,8.22c3.24,0,6.16-1.18,7.86-3.18v2.57h6.53v-16.03c0-7.14-5.19-9.4-10.84-9.4Zm4.32,19.47c-1.08,1.44-3.13,2.16-5.24,2.16-2.57,0-4.68-1.34-4.68-3.65s2.11-3.75,4.68-3.75c2.11,0,4.16.72,5.24,2.16v3.08Z"/>
          <path class="cls-4" d="m334,42.04v-12.95h-4.11v-5.7h4.11v-6.78h6.58v6.78h5.03v5.7h-5.03v11.2c0,1.54.82,2.72,2.26,2.72.98,0,1.9-.36,2.26-.72l1.39,4.93c-.98.87-2.72,1.59-5.45,1.59-4.57,0-7.04-2.36-7.04-6.78Z"/>
          <path class="cls-4" d="m373.77,36.44c0-8.12-5.03-13.67-12.43-13.67s-12.84,5.81-12.84,13c0,7.96,5.7,13.05,13.25,13.05,3.85,0,7.76-1.18,10.22-3.44l-2.88-4.21c-1.59,1.54-4.32,2.47-6.63,2.47-4.21,0-6.73-2.62-7.14-5.75h18.44v-1.44Zm-18.55-2.98c.31-2.47,2.05-5.5,6.11-5.5,4.32,0,5.96,3.13,6.11,5.5h-12.23Z"/>
          <path class="cls-4" d="m395.55,13.94v12.64c-1.95-2.52-4.73-3.8-7.65-3.8-6.32,0-10.99,4.93-10.99,13.05s4.73,13,10.99,13c2.98,0,5.7-1.34,7.65-3.8v3.19h6.58V13.94h-6.58Zm0,26.25c-1.08,1.64-3.44,2.82-5.65,2.82-3.7,0-6.27-2.93-6.27-7.19s2.57-7.24,6.27-7.24c2.21,0,4.57,1.18,5.65,2.83v8.79Z"/>
        </g>
        <g>
          <path class="cls-4" d="m168.91,65.83h-9.15l-13.25,34.27h8.01l2.16-5.91h15.31l2.16,5.91h7.96l-13.2-34.27Zm-10.28,22.04l5.7-15.72,5.65,15.72h-11.35Z"/>
          <path class="cls-4" d="m201.9,85.09c0-3.44-1.8-4.62-4.57-4.62-2.57,0-4.57,1.44-5.65,2.93v16.7h-6.52v-24.81h6.52v3.24c1.59-1.9,4.62-3.85,8.68-3.85,5.45,0,8.07,3.08,8.07,7.91v17.52h-6.52v-15Z"/>
          <path class="cls-4" d="m225.48,74.66c-3.9,0-7.81,1.23-10.84,3.9l2.47,4.37c2.11-1.95,4.57-2.93,7.24-2.93,3.29,0,5.45,1.64,5.45,4.16v3.44c-1.64-2-4.57-3.03-7.86-3.03-3.96,0-8.63,2.11-8.63,7.91s4.68,8.22,8.63,8.22c3.24,0,6.16-1.18,7.86-3.18v2.57h6.53v-16.03c0-7.14-5.19-9.4-10.84-9.4Zm4.32,19.47c-1.08,1.44-3.13,2.16-5.24,2.16-2.57,0-4.68-1.34-4.68-3.65s2.11-3.75,4.68-3.75c2.11,0,4.16.72,5.24,2.16v3.08Z"/>
          <rect class="cls-4" x="242.8" y="65.83" width="6.52" height="34.27"/>
          <path class="cls-4" d="m257.96,104.36c1.7,0,2.83-.46,3.44-1.8l.92-2.11-10.07-25.17h6.99l6.47,17.26,6.47-17.26h7.04l-11.66,28.87c-1.85,4.67-5.14,5.91-9.4,6.01-.77,0-2.41-.15-3.24-.36l.98-5.86c.56.26,1.44.41,2.05.41Z"/>
          <path class="cls-4" d="m283.44,93.93v-12.95h-4.11v-5.7h4.11v-6.78h6.58v6.78h5.03v5.7h-5.03v11.2c0,1.54.82,2.72,2.26,2.72.98,0,1.9-.36,2.26-.72l1.39,4.93c-.98.87-2.72,1.59-5.45,1.59-4.57,0-7.04-2.36-7.04-6.78Z"/>
          <path class="cls-4" d="m298.86,67.73c0-2.16,1.8-3.9,3.9-3.9s3.91,1.75,3.91,3.9-1.75,3.9-3.91,3.9-3.9-1.75-3.9-3.9Z"/>
          <rect class="cls-4" x="299.52" y="75.28" width="6.52" height="24.81"/>
          <path class="cls-4" d="m324.08,74.66c5.09,0,8.17,2.21,9.81,4.47l-4.27,4.01c-1.18-1.75-2.98-2.67-5.24-2.67-3.96,0-6.73,2.88-6.73,7.19s2.77,7.24,6.73,7.24c2.26,0,4.06-1.03,5.24-2.67l4.27,3.96c-1.64,2.31-4.73,4.52-9.81,4.52-7.66,0-13.15-5.39-13.15-13.05s5.5-13,13.15-13Z"/>
          <path class="cls-4" d="m338.83,92.29c1.8,1.7,5.5,3.39,8.58,3.39,2.83,0,4.16-.98,4.16-2.52,0-1.75-2.16-2.36-4.98-2.93-4.26-.82-9.76-1.85-9.76-7.76,0-4.16,3.65-7.81,10.17-7.81,4.21,0,7.55,1.44,10.02,3.39l-2.62,4.47c-1.49-1.59-4.32-2.88-7.35-2.88-2.36,0-3.91.87-3.91,2.31,0,1.54,1.95,2.11,4.73,2.67,4.26.82,9.97,1.95,9.97,8.12,0,4.52-3.85,7.96-10.74,7.96-4.32,0-8.48-1.44-11.1-3.85l2.83-4.57Z"/>
        </g>
      </g>
      <g>
        <path class="cls-4" d="m119.28,88.61L77.66,8.97s-.01-.02-.02-.03c-.11-.21-.24-.4-.38-.58-.04-.06-.08-.13-.12-.18-.09-.11-.2-.2-.3-.3-.11-.12-.22-.24-.35-.35-.04-.04-.1-.06-.14-.1-.2-.15-.4-.29-.62-.41,0,0-.01-.01-.02-.01-.08-.04-.16-.06-.24-.1-.19-.09-.38-.17-.58-.23-.13-.04-.26-.05-.38-.08-.17-.03-.33-.07-.5-.09-.13-.01-.27,0-.4,0-.17,0-.33,0-.5,0-.14.01-.27.05-.4.07-.16.03-.32.05-.48.1-.17.05-.32.13-.49.19-.11.05-.22.07-.32.13-.01,0-.02.01-.03.02-.19.1-.36.22-.53.35-.08.05-.16.1-.23.16-.09.08-.17.17-.26.26-.13.13-.27.25-.39.39-.04.05-.07.11-.11.16-.15.19-.29.39-.4.61,0,0-.01.02-.02.03L31.93,80.75l-16.71-31.96c-1.18-2.27-3.98-3.14-6.25-1.96-2.27,1.18-3.14,3.98-1.96,6.25l24.92,47.67L73.55,21.12l37.52,71.78c.83,1.58,2.44,2.49,4.11,2.49.72,0,1.46-.17,2.14-.53,2.27-1.18,3.14-3.98,1.96-6.25Z"/>
        <circle class="cls-4" cx="73.55" cy="90.75" r="11.12"/>
        <circle class="cls-3" cx="31.93" cy="90.75" r="11.12"/>
        <circle class="cls-1" cx="11.12" cy="50.94" r="11.12"/>
        <circle class="cls-2" cx="73.55" cy="11.12" r="11.12"/>
        <circle class="cls-5" cx="115.17" cy="90.75" r="11.12"/>
      </g>
    </g>
  </g>
</svg>