<svg id="Group_39" data-name="Group 39" xmlns="http://www.w3.org/2000/svg" xmlns:xlink="http://www.w3.org/1999/xlink" width="324" height="38.921" viewBox="0 0 324 38.921">
  <defs>
    <clipPath id="clip-path">
      <rect id="Rectangle_21" data-name="Rectangle 21" width="324" height="38.921" fill="none"/>
    </clipPath>
  </defs>
  <g id="Group_38" data-name="Group 38" clip-path="url(#clip-path)">
    <path id="Path_280" data-name="Path 280" d="M39.326,27.167h-.191L28.081,6.1a3.731,3.731,0,0,0,.808-2.306,3.794,3.794,0,0,0-7.589,0A3.731,3.731,0,0,0,22.108,6.1L11.086,27.188H10.7l-3.922-7.5a3.731,3.731,0,0,0,.808-2.307,3.794,3.794,0,1,0-3.794,3.795h.191L7.908,28.7A3.73,3.73,0,0,0,7.1,31a3.794,3.794,0,0,0,7.589,0,3.73,3.73,0,0,0-.808-2.306L24.9,7.567h.383L36.308,28.7A3.73,3.73,0,0,0,35.5,31a3.795,3.795,0,1,0,3.826-3.837" transform="translate(0 -0.001)" fill="#fff"/>
    <path id="Path_281" data-name="Path 281" d="M82.723,100.679a3.791,3.791,0,1,1-3.791,3.791,3.791,3.791,0,0,1,3.791-3.791" transform="translate(-57.62 -73.496)" fill="#fff"/>
    <path id="Path_282" data-name="Path 282" d="M211.915,52.359H206.8l-7.409,19.164h4.474l1.208-3.305h8.561l1.208,3.305h4.474Zm-5.749,12.3,3.188-8.791,3.159,8.791Z" transform="translate(-145.554 -38.222)" fill="#fff"/>
    <path id="Path_283" data-name="Path 283" d="M287.3,84.056a6.487,6.487,0,0,1-4.882,2.1c-3.048,0-4.474-1.678-4.474-4.368V71.932h3.646v8.422a2.23,2.23,0,0,0,2.556,2.556,4.082,4.082,0,0,0,3.159-1.582V71.932h3.651V85.811h-3.651Z" transform="translate(-202.902 -52.51)" fill="#fff"/>
    <path id="Path_284" data-name="Path 284" d="M335.98,72.185V64.949h-2.3V61.756h2.3V57.992h3.68v3.792h2.8v3.193h-2.8v6.229c0,.867.459,1.527,1.264,1.527a2,2,0,0,0,1.264-.4l.772,2.757a4.535,4.535,0,0,1-3.042.889c-2.556,0-3.937-1.32-3.937-3.791" transform="translate(-243.588 -42.334)" fill="#fff"/>
    <path id="Path_285" data-name="Path 285" d="M379.531,70.668a7.27,7.27,0,1,0,7.354,7.27,7.04,7.04,0,0,0-7.354-7.27m0,11.318c-2.27,0-3.534-1.868-3.534-4.054s1.264-4.021,3.534-4.021,3.562,1.868,3.562,4.021-1.292,4.054-3.562,4.054" transform="translate(-271.71 -51.588)" fill="#fff"/>
    <path id="Path_286" data-name="Path 286" d="M453.8,76.171c0-1.292-.559-2.237-2.069-2.237a3.685,3.685,0,0,0-2.874,1.611v9.389h-3.674V76.171c0-1.292-.559-2.237-2.069-2.237a3.731,3.731,0,0,0-2.874,1.639v9.339H436.6V71.054h3.646v1.829a6.078,6.078,0,0,1,4.541-2.153,3.65,3.65,0,0,1,3.847,2.527,5.894,5.894,0,0,1,4.77-2.527c2.556,0,4.076,1.348,4.076,4.194v10.01H453.8Z" transform="translate(-318.716 -51.633)" fill="#fff"/>
    <path id="Path_287" data-name="Path 287" d="M530.733,70.664a9.114,9.114,0,0,0-6.062,2.17l1.381,2.444a5.844,5.844,0,0,1,4.038-1.627c1.84,0,3.048.917,3.048,2.326V77.9a5.6,5.6,0,0,0-4.4-1.678c-2.237,0-4.826,1.18-4.826,4.423a4.621,4.621,0,0,0,4.826,4.6,5.738,5.738,0,0,0,4.407-1.784V84.9H536.8V75.949c0-4.021-2.9-5.284-6.067-5.284m2.416,10.888a3.658,3.658,0,0,1-2.93,1.2c-1.437,0-2.617-.744-2.617-2.036s1.18-2.1,2.617-2.1a3.658,3.658,0,0,1,2.93,1.2Z" transform="translate(-382.459 -51.584)" fill="#fff"/>
    <path id="Path_288" data-name="Path 288" d="M581.494,72.185V64.949h-2.3V61.756h2.3V57.992h3.674v3.792h2.8v3.193h-2.8v6.229c0,.867.464,1.527,1.264,1.527a1.984,1.984,0,0,0,1.264-.4l.777,2.757a4.535,4.535,0,0,1-3.042.889c-2.561,0-3.937-1.32-3.937-3.791" transform="translate(-422.813 -42.334)" fill="#fff"/>
    <path id="Path_289" data-name="Path 289" d="M631.841,78.3c0-4.541-2.8-7.639-6.951-7.639a7.057,7.057,0,0,0-7.182,6.93q0,.17,0,.34c0,4.474,3.187,7.27,7.409,7.27a8.656,8.656,0,0,0,5.721-1.924l-1.611-2.354a5.676,5.676,0,0,1-3.707,1.415,3.739,3.739,0,0,1-3.993-3.215h10.312Zm-10.357-1.666a3.356,3.356,0,0,1,3.417-3.076,3.209,3.209,0,0,1,3.412,2.993c0,.027,0,.055,0,.082Z" transform="translate(-450.926 -51.585)" fill="#fff"/>
    <path id="Path_290" data-name="Path 290" d="M686.974,52.358v7.069A5.341,5.341,0,0,0,682.69,57.3c-3.529,0-6.151,2.757-6.151,7.3s2.645,7.27,6.151,7.27a5.386,5.386,0,0,0,4.284-2.125v1.784h3.674V52.358Zm0,14.679a3.959,3.959,0,0,1-3.16,1.582c-2.069,0-3.506-1.638-3.506-4.021s1.437-4.054,3.506-4.054a3.96,3.96,0,0,1,3.16,1.582Z" transform="translate(-493.873 -38.221)" fill="#fff"/>
    <path id="Path_291" data-name="Path 291" d="M774.719,52.359h-5.111l-7.426,19.164h4.474l1.208-3.305h8.562l1.2,3.305H782.1Zm-5.743,12.3,3.188-8.791,3.159,8.791Z" transform="translate(-556.392 -38.222)" fill="#fff"/>
    <path id="Path_292" data-name="Path 292" d="M851.618,76.538c0-1.924-1.007-2.584-2.556-2.584a3.948,3.948,0,0,0-3.16,1.639v9.339h-3.652V71.053H845.9v1.829a6.346,6.346,0,0,1,4.854-2.153c3.042,0,4.508,1.722,4.508,4.423v9.78h-3.646Z" transform="translate(-614.843 -51.631)" fill="#fff"/>
    <path id="Path_293" data-name="Path 293" d="M907.386,70.664a9.114,9.114,0,0,0-6.067,2.17l1.381,2.444a5.845,5.845,0,0,1,4.049-1.639c1.84,0,3.048.917,3.048,2.326v1.924a5.6,5.6,0,0,0-4.4-1.678c-2.237,0-4.826,1.18-4.826,4.423a4.621,4.621,0,0,0,4.826,4.6,5.749,5.749,0,0,0,4.4-1.773V84.9h3.652V75.948c0-4.021-2.9-5.284-6.062-5.284M909.8,81.552a3.658,3.658,0,0,1-2.93,1.2c-1.437,0-2.617-.744-2.617-2.036s1.18-2.1,2.617-2.1a3.658,3.658,0,0,1,2.93,1.2Z" transform="translate(-657.42 -51.584)" fill="#fff"/>
    <rect id="Rectangle_19" data-name="Rectangle 19" width="3.646" height="19.164" transform="translate(259.646 14.137)" fill="#fff"/>
    <path id="Path_294" data-name="Path 294" d="M984.433,88.193a1.836,1.836,0,0,0,1.924-1.007l.52-1.174-5.632-14.081h3.914l3.613,9.658,3.618-9.652H996.3l-6.5,16.139c-1.035,2.617-2.874,3.3-5.262,3.355a10.207,10.207,0,0,1-1.806-.2l.559-3.277a3.126,3.126,0,0,0,1.135.241" transform="translate(-716.309 -52.51)" fill="#fff"/>
    <path id="Path_295" data-name="Path 295" d="M1039.714,72.185V64.949h-2.3V61.756h2.3V57.992h3.679v3.792h2.8v3.193h-2.8v6.229c0,.867.458,1.527,1.264,1.527a1.985,1.985,0,0,0,1.264-.4l.777,2.757a4.542,4.542,0,0,1-3.048.889c-2.584,0-3.937-1.32-3.937-3.791" transform="translate(-757.314 -42.334)" fill="#fff"/>
    <path id="Path_296" data-name="Path 296" d="M1077.761,50.382a2.186,2.186,0,1,1,2.186,2.186h-.006a2.2,2.2,0,0,1-2.181-2.186" transform="translate(-786.766 -35.183)" fill="#fff"/>
    <rect id="Rectangle_20" data-name="Rectangle 20" width="3.646" height="13.874" transform="translate(291.37 19.421)" fill="#fff"/>
    <path id="Path_297" data-name="Path 297" d="M1110.119,70.668a6.451,6.451,0,0,1,5.486,2.5l-2.388,2.237a3.355,3.355,0,0,0-2.931-1.493,4.047,4.047,0,0,0,0,8.075,3.506,3.506,0,0,0,2.931-1.493l2.388,2.237a6.4,6.4,0,0,1-5.486,2.527,7.3,7.3,0,1,1,0-14.59" transform="translate(-805.015 -51.588)" fill="#fff"/>
    <path id="Path_298" data-name="Path 298" d="M1156.342,80.518a7.969,7.969,0,0,0,4.8,1.9c1.583,0,2.326-.559,2.326-1.409,0-.979-1.2-1.32-2.8-1.639-2.382-.458-5.458-1.034-5.458-4.339,0-2.326,2.041-4.362,5.687-4.362a8.853,8.853,0,0,1,5.592,1.9l-1.443,2.511a5.845,5.845,0,0,0-4.11-1.611c-1.32,0-2.181.487-2.181,1.292s1.119,1.18,2.646,1.493c2.382.459,5.592,1.119,5.592,4.541,0,2.528-2.153,4.474-6,4.474a9.354,9.354,0,0,1-6.207-2.153Z" transform="translate(-842.995 -51.585)" fill="#fff"/>
    <path id="Path_299" data-name="Path 299" d="M82.683,100.614a3.794,3.794,0,1,1-3.795,3.795,3.795,3.795,0,0,1,3.795-3.795" transform="translate(-57.588 -73.448)" fill="#fff"/>
  </g>
</svg>
