<?xml version="1.0" encoding="UTF-8"?>
<svg id="Layer_2" data-name="Layer 2" xmlns="http://www.w3.org/2000/svg" viewBox="0 0 579.35 116.83">
  <defs>
    <style>
      .cls-1 {
        fill: #5db67a;
      }

      .cls-1, .cls-2, .cls-3, .cls-4, .cls-5, .cls-6 {
        stroke-width: 0px;
      }

      .cls-2 {
        fill: #512582;
      }

      .cls-3 {
        fill: #2580c3;
      }

      .cls-4 {
        fill: #112c4d;
      }

      .cls-5 {
        fill: #e5007e;
      }

      .cls-6 {
        fill: #9191a5;
      }
    </style>
  </defs>
  <g id="Layer_1-2" data-name="Layer 1">
    <g>
      <polygon class="cls-6" points="216.48 87.6 205.4 116.24 208.46 116.24 219.54 87.6 216.48 87.6"/>
      <polygon class="cls-6" points="238.08 87.6 227 116.24 230.07 116.24 241.14 87.6 238.08 87.6"/>
      <g>
        <path class="cls-4" d="m72.79,54.08L47.39,5.47s0-.01-.01-.02c-.07-.13-.15-.24-.23-.36-.03-.04-.05-.08-.07-.11-.05-.07-.12-.12-.18-.18-.07-.07-.14-.15-.21-.21-.03-.02-.06-.04-.09-.06-.12-.09-.25-.18-.38-.25,0,0,0,0-.01,0-.05-.03-.1-.04-.15-.06-.12-.05-.23-.1-.35-.14-.08-.02-.16-.03-.23-.05-.1-.02-.2-.05-.31-.06-.08,0-.16,0-.24,0-.1,0-.2,0-.31,0-.08,0-.16.03-.24.04-.1.02-.2.03-.29.06-.1.03-.2.08-.3.12-.07.03-.13.05-.2.08,0,0-.01,0-.02.01-.11.06-.22.14-.32.21-.05.03-.1.06-.14.1-.06.05-.1.11-.16.16-.08.08-.17.15-.24.24-.02.03-.04.07-.06.1-.09.12-.17.24-.24.37,0,0,0,.01-.01.02l-22.9,43.81-10.2-19.51c-.72-1.38-2.43-1.92-3.81-1.2-1.38.72-1.92,2.43-1.2,3.81l15.21,29.09L44.89,12.89l22.9,43.81c.5.97,1.49,1.52,2.51,1.52.44,0,.89-.1,1.31-.32,1.38-.72,1.92-2.43,1.2-3.81Z"/>
        <circle class="cls-4" cx="44.89" cy="55.39" r="6.78"/>
        <circle class="cls-3" cx="19.49" cy="55.39" r="6.78"/>
        <circle class="cls-1" cx="6.78" cy="31.09" r="6.78"/>
        <circle class="cls-2" cx="44.89" cy="6.78" r="6.78"/>
        <circle class="cls-5" cx="70.29" cy="55.39" r="6.78"/>
        <g>
          <path class="cls-4" d="m118.67,25.28h-9.14l-13.25,34.27h8.01l2.16-5.91h15.31l2.16,5.91h7.96l-13.2-34.27Zm-10.27,22.04l5.7-15.72,5.65,15.72h-11.35Z"/>
          <path class="cls-4" d="m150.93,56.41c-1.7,1.9-4.68,3.75-8.73,3.75-5.45,0-8.01-2.98-8.01-7.81v-17.62h6.52v15.05c0,3.44,1.8,4.57,4.57,4.57,2.52,0,4.52-1.39,5.65-2.83v-16.8h6.52v24.81h-6.52v-3.13Z"/>
          <path class="cls-4" d="m165.22,53.38v-12.95h-4.11v-5.7h4.11v-6.78h6.58v6.78h5.03v5.7h-5.03v11.2c0,1.54.82,2.72,2.26,2.72.98,0,1.9-.36,2.26-.72l1.39,4.93c-.98.87-2.72,1.59-5.45,1.59-4.57,0-7.04-2.36-7.04-6.78Z"/>
          <path class="cls-4" d="m192.81,34.12c-8.17,0-13.1,5.96-13.1,13s4.93,13.05,13.1,13.05,13.15-5.96,13.15-13.05-4.93-13-13.15-13Zm0,20.24c-4.06,0-6.32-3.34-6.32-7.24s2.26-7.19,6.32-7.19,6.37,3.34,6.37,7.19-2.31,7.24-6.37,7.24Z"/>
          <path class="cls-4" d="m241.57,43.88c0-2.31-1.03-3.96-3.7-3.96-2.31,0-4.21,1.54-5.14,2.88v16.75h-6.58v-15.67c0-2.31-1.03-3.96-3.7-3.96-2.26,0-4.16,1.54-5.14,2.93v16.7h-6.52v-24.81h6.52v3.24c1.03-1.49,4.32-3.85,8.12-3.85s5.96,1.7,6.88,4.52c1.44-2.26,4.73-4.52,8.53-4.52,4.57,0,7.29,2.41,7.29,7.5v17.93h-6.58v-15.67Z"/>
          <path class="cls-4" d="m265.15,34.12c-3.9,0-7.81,1.23-10.84,3.9l2.47,4.37c2.11-1.95,4.57-2.93,7.24-2.93,3.29,0,5.45,1.64,5.45,4.16v3.44c-1.64-2-4.57-3.03-7.86-3.03-3.96,0-8.63,2.11-8.63,7.91s4.68,8.22,8.63,8.22c3.24,0,6.16-1.18,7.86-3.18v2.57h6.53v-16.03c0-7.14-5.19-9.4-10.84-9.4Zm4.32,19.47c-1.08,1.44-3.13,2.16-5.24,2.16-2.57,0-4.68-1.34-4.68-3.65s2.11-3.75,4.68-3.75c2.11,0,4.16.72,5.24,2.16v3.08Z"/>
          <path class="cls-4" d="m283.76,53.38v-12.95h-4.11v-5.7h4.11v-6.78h6.58v6.78h5.03v5.7h-5.03v11.2c0,1.54.82,2.72,2.26,2.72.98,0,1.9-.36,2.26-.72l1.39,4.93c-.98.87-2.72,1.59-5.45,1.59-4.57,0-7.04-2.36-7.04-6.78Z"/>
          <path class="cls-4" d="m323.52,47.78c0-8.12-5.03-13.67-12.43-13.67s-12.84,5.81-12.84,13c0,7.96,5.7,13.05,13.25,13.05,3.85,0,7.76-1.18,10.22-3.44l-2.88-4.21c-1.59,1.54-4.32,2.47-6.63,2.47-4.21,0-6.73-2.62-7.14-5.75h18.44v-1.44Zm-18.55-2.98c.31-2.47,2.05-5.5,6.11-5.5,4.32,0,5.96,3.13,6.11,5.5h-12.23Z"/>
          <path class="cls-4" d="m345.31,25.28v12.64c-1.95-2.52-4.73-3.8-7.65-3.8-6.32,0-10.99,4.93-10.99,13.05s4.73,13,10.99,13c2.98,0,5.7-1.34,7.65-3.8v3.19h6.58V25.28h-6.58Zm0,26.25c-1.08,1.64-3.44,2.82-5.65,2.82-3.7,0-6.27-2.93-6.27-7.19s2.57-7.24,6.27-7.24c2.21,0,4.57,1.18,5.65,2.83v8.79Z"/>
          <path class="cls-4" d="m390.42,25.28h-9.15l-13.25,34.27h8.01l2.16-5.91h15.31l2.16,5.91h7.96l-13.2-34.27Zm-10.28,22.04l5.7-15.72,5.65,15.72h-11.35Z"/>
          <path class="cls-4" d="m423.41,44.54c0-3.44-1.8-4.62-4.57-4.62-2.57,0-4.57,1.44-5.65,2.93v16.7h-6.52v-24.81h6.52v3.24c1.59-1.9,4.62-3.85,8.68-3.85,5.45,0,8.07,3.08,8.07,7.91v17.52h-6.52v-15Z"/>
          <path class="cls-4" d="m446.99,34.12c-3.9,0-7.81,1.23-10.84,3.9l2.47,4.37c2.11-1.95,4.57-2.93,7.24-2.93,3.29,0,5.45,1.64,5.45,4.16v3.44c-1.64-2-4.57-3.03-7.86-3.03-3.96,0-8.63,2.11-8.63,7.91s4.68,8.22,8.63,8.22c3.24,0,6.16-1.18,7.86-3.18v2.57h6.53v-16.03c0-7.14-5.19-9.4-10.84-9.4Zm4.32,19.47c-1.08,1.44-3.13,2.16-5.24,2.16-2.57,0-4.68-1.34-4.68-3.65s2.11-3.75,4.68-3.75c2.11,0,4.16.72,5.24,2.16v3.08Z"/>
          <rect class="cls-4" x="464.31" y="25.28" width="6.52" height="34.27"/>
          <path class="cls-4" d="m479.47,63.81c1.7,0,2.83-.46,3.44-1.8l.92-2.11-10.07-25.17h6.99l6.47,17.26,6.47-17.26h7.04l-11.66,28.87c-1.85,4.67-5.14,5.91-9.4,6.01-.77,0-2.41-.15-3.24-.36l.98-5.86c.56.26,1.44.41,2.05.41Z"/>
          <path class="cls-4" d="m504.95,53.38v-12.95h-4.11v-5.7h4.11v-6.78h6.58v6.78h5.03v5.7h-5.03v11.2c0,1.54.82,2.72,2.26,2.72.98,0,1.9-.36,2.26-.72l1.39,4.93c-.98.87-2.72,1.59-5.45,1.59-4.57,0-7.04-2.36-7.04-6.78Z"/>
          <path class="cls-4" d="m520.37,27.18c0-2.16,1.8-3.9,3.9-3.9s3.91,1.75,3.91,3.9-1.75,3.9-3.91,3.9-3.9-1.75-3.9-3.9Z"/>
          <rect class="cls-4" x="521.04" y="34.73" width="6.52" height="24.81"/>
          <path class="cls-4" d="m545.6,34.12c5.09,0,8.17,2.21,9.81,4.47l-4.27,4.01c-1.18-1.75-2.98-2.67-5.24-2.67-3.96,0-6.73,2.88-6.73,7.19s2.77,7.24,6.73,7.24c2.26,0,4.06-1.03,5.24-2.67l4.27,3.96c-1.64,2.31-4.73,4.52-9.81,4.52-7.66,0-13.15-5.39-13.15-13.05s5.5-13,13.15-13Z"/>
          <path class="cls-4" d="m560.34,51.74c1.8,1.7,5.5,3.39,8.58,3.39,2.83,0,4.16-.98,4.16-2.52,0-1.75-2.16-2.36-4.98-2.93-4.26-.82-9.76-1.85-9.76-7.76,0-4.16,3.65-7.81,10.17-7.81,4.21,0,7.55,1.44,10.02,3.39l-2.62,4.47c-1.49-1.59-4.32-2.88-7.35-2.88-2.36,0-3.91.87-3.91,2.31,0,1.54,1.95,2.11,4.73,2.67,4.26.82,9.97,1.95,9.97,8.12,0,4.52-3.85,7.96-10.74,7.96-4.32,0-8.48-1.44-11.1-3.85l2.83-4.57Z"/>
        </g>
      </g>
      <g>
        <path class="cls-6" d="m272.09,116.31l-2.53-6.39h-14.25l-2.53,6.39h-4.08l11.54-28.62h4.42l11.5,28.62h-4.08Zm-9.66-24.98l-6.05,15.45h12.14l-6.09-15.45Z"/>
        <path class="cls-6" d="m279.74,111.98v-13.56h-3.43v-2.83h3.43v-5.66h3.26v5.66h4.21v2.83h-4.21v12.87c0,1.55.69,2.66,2.06,2.66.94,0,1.76-.43,2.19-.9l.94,2.45c-.82.77-1.97,1.33-3.82,1.33-3.09,0-4.63-1.76-4.63-4.85Z"/>
        <path class="cls-6" d="m292.14,111.98v-13.56h-3.43v-2.83h3.43v-5.66h3.26v5.66h4.21v2.83h-4.21v12.87c0,1.55.69,2.66,2.06,2.66.94,0,1.76-.43,2.19-.9l.94,2.45c-.82.77-1.97,1.33-3.82,1.33-3.09,0-4.63-1.76-4.63-4.85Z"/>
        <path class="cls-6" d="m303.9,116.31v-20.73h3.22v3.3c1.67-2.15,4.08-3.78,6.91-3.78v3.3c-.39-.04-.77-.09-1.24-.09-2.02,0-4.72,1.63-5.66,3.3v14.68h-3.22Z"/>
        <path class="cls-6" d="m317.29,90.48c0-1.2.99-2.19,2.19-2.19s2.15.99,2.15,2.19-.94,2.15-2.15,2.15-2.19-.94-2.19-2.15Zm.56,25.83v-20.73h3.22v20.73h-3.22Z"/>
        <path class="cls-6" d="m327.29,116.31v-28.62h3.22v11.03c1.67-2.27,4.21-3.65,7-3.65,5.45,0,9.23,4.25,9.23,10.9s-3.82,10.86-9.23,10.86c-2.92,0-5.45-1.5-7-3.6v3.09h-3.22Zm9.44-2.36c4.16,0,6.65-3.39,6.65-7.98s-2.49-8.02-6.65-8.02c-2.57,0-5.11,1.54-6.22,3.35v9.4c1.12,1.8,3.65,3.26,6.22,3.26Z"/>
        <path class="cls-6" d="m365.74,116.31v-2.92c-1.59,1.8-4.29,3.43-7.38,3.43-4.33,0-6.61-2.14-6.61-6.61v-14.63h3.22v13.65c0,3.65,1.85,4.72,4.68,4.72,2.49,0,4.89-1.46,6.09-3.13v-15.23h3.22v20.73h-3.22Z"/>
        <path class="cls-6" d="m375.83,111.98v-13.56h-3.43v-2.83h3.43v-5.66h3.26v5.66h4.21v2.83h-4.21v12.87c0,1.55.69,2.66,2.06,2.66.94,0,1.76-.43,2.19-.9l.94,2.45c-.82.77-1.97,1.33-3.82,1.33-3.09,0-4.63-1.76-4.63-4.85Z"/>
        <path class="cls-6" d="m387.03,90.48c0-1.2.99-2.19,2.19-2.19s2.15.99,2.15,2.19-.94,2.15-2.15,2.15-2.19-.94-2.19-2.15Zm.56,25.83v-20.73h3.22v20.73h-3.22Z"/>
        <path class="cls-6" d="m395.83,105.93c0-6.01,3.95-10.86,10.26-10.86s10.26,4.85,10.26,10.86-3.95,10.9-10.26,10.9-10.26-4.89-10.26-10.9Zm17.12,0c0-4.21-2.45-7.98-6.87-7.98s-6.87,3.78-6.87,7.98,2.45,8.03,6.87,8.03,6.87-3.78,6.87-8.03Z"/>
        <path class="cls-6" d="m435.4,116.31v-13.56c0-3.69-1.89-4.81-4.68-4.81-2.53,0-4.89,1.54-6.14,3.22v15.15h-3.22v-20.73h3.22v3c1.46-1.76,4.29-3.52,7.42-3.52,4.29,0,6.56,2.19,6.56,6.69v14.55h-3.18Z"/>
        <path class="cls-6" d="m454.16,112.28l2.15-2.75c1.85,2.15,4.93,4.12,8.97,4.12,5.11,0,6.74-2.75,6.74-4.98,0-7.38-16.95-3.26-16.95-13.47,0-4.72,4.21-7.98,9.87-7.98,4.33,0,7.72,1.5,10.13,4.03l-2.15,2.62c-2.14-2.4-5.15-3.43-8.28-3.43-3.39,0-5.88,1.85-5.88,4.55,0,6.44,16.95,2.75,16.95,13.43,0,4.12-2.83,8.41-10.56,8.41-4.94,0-8.63-1.89-10.99-4.55Z"/>
        <path class="cls-6" d="m479.48,105.93c0-6.01,3.95-10.86,10.26-10.86s10.26,4.85,10.26,10.86-3.95,10.9-10.26,10.9-10.26-4.89-10.26-10.9Zm17.12,0c0-4.21-2.45-7.98-6.87-7.98s-6.87,3.78-6.87,7.98,2.45,8.03,6.87,8.03,6.87-3.78,6.87-8.03Z"/>
        <path class="cls-6" d="m505.02,111.98v-24.29h3.22v23.6c0,1.55.69,2.66,2.1,2.66.9,0,1.76-.43,2.15-.9l.99,2.45c-.86.77-1.97,1.33-3.86,1.33-3.05,0-4.59-1.76-4.59-4.85Z"/>
        <path class="cls-6" d="m521.88,116.31l-8.62-20.73h3.52l6.87,16.99,6.91-16.99h3.48l-8.63,20.73h-3.52Z"/>
        <path class="cls-6" d="m535.96,105.93c0-6.01,4.29-10.86,10.21-10.86,6.27,0,9.96,4.89,9.96,11.11v.82h-16.74c.26,3.91,2.96,7.17,7.42,7.17,2.4,0,4.76-.94,6.44-2.66l1.54,2.1c-2.1,2.06-4.89,3.22-8.24,3.22-6.18,0-10.6-4.42-10.6-10.9Zm10.17-8.2c-4.42,0-6.61,3.73-6.78,6.87h13.6c-.04-3.05-2.1-6.87-6.82-6.87Z"/>
        <path class="cls-6" d="m576.13,116.31v-3.09c-1.54,2.1-4.08,3.6-6.99,3.6-5.41,0-9.23-4.12-9.23-10.86s3.82-10.9,9.23-10.9c2.79,0,5.32,1.37,6.99,3.65v-11.03h3.22v28.62h-3.22Zm0-5.66v-9.36c-1.11-1.8-3.65-3.35-6.18-3.35-4.21,0-6.69,3.43-6.69,8.02s2.49,7.98,6.69,7.98c2.53,0,5.06-1.5,6.18-3.3Z"/>
      </g>
    </g>
  </g>
</svg>